<svg width="55" height="55" viewBox="0 0 55 55" fill="none" xmlns="http://www.w3.org/2000/svg">
<path fill-rule="evenodd" clip-rule="evenodd" d="M27.5 2.29199C13.5781 2.29199 2.29163 13.5785 2.29163 27.5003C2.29163 41.4222 13.5781 52.7087 27.5 52.7087C41.4218 52.7087 52.7083 41.4222 52.7083 27.5003C52.7083 13.5785 41.4218 2.29199 27.5 2.29199ZM38.4266 23.2378C38.6278 23.0078 38.781 22.7399 38.8771 22.4499C38.9733 22.1598 39.0104 21.8535 38.9864 21.5488C38.9624 21.2442 38.8777 20.9474 38.7373 20.676C38.5969 20.4046 38.4037 20.164 38.1689 19.9684C37.9342 19.7728 37.6627 19.6261 37.3704 19.5369C37.0781 19.4478 36.7709 19.418 36.467 19.4493C36.163 19.4806 35.8684 19.5724 35.6004 19.7193C35.3324 19.8661 35.0966 20.0651 34.9066 20.3045L25.0525 32.1272L19.9535 27.0259C19.5213 26.6085 18.9424 26.3775 18.3415 26.3827C17.7407 26.388 17.1659 26.629 16.741 27.0539C16.3161 27.4788 16.0751 28.0535 16.0699 28.6544C16.0647 29.2553 16.2956 29.8342 16.7131 30.2664L23.5881 37.1414C23.8133 37.3664 24.0828 37.5421 24.3797 37.6571C24.6765 37.7722 24.994 37.8242 25.312 37.8097C25.63 37.7953 25.9416 37.7147 26.2267 37.5732C26.5119 37.4317 26.7644 37.2323 26.9683 36.9878L38.4266 23.2378Z" fill="#4ECB71"/>
</svg>
